<?xml version="1.0" encoding="UTF-8"?>
<svg id="Layer_1" xmlns="http://www.w3.org/2000/svg" version="1.1" viewBox="0 0 1200 80.2">
  <!-- Generator: Adobe Illustrator 29.5.1, SVG Export Plug-In . SVG Version: 2.1.0 Build 141)  -->
  <polygon points="-15.7 -12.01 -15.7 34.82 9.85 34.82 9.85 40.74 16.74 40.74 16.74 34.82 51.62 34.82 51.62 61.41 88.33 61.41 88.33 34.82 92.57 34.82 92.57 41.77 105.34 41.77 105.34 34.82 114.02 34.82 114.02 41.77 123.21 41.77 123.21 34.82 134.45 34.82 134.45 47.38 146.7 47.38 146.7 34.82 161 34.82 161 45.85 169.68 45.85 169.68 34.82 186.02 34.82 186.02 44.83 211.04 44.83 211.04 34.82 223.3 34.82 223.3 44.83 240.15 44.83 240.15 34.82 254.96 34.82 254.96 41.77 265.68 41.77 265.68 34.82 300.4 34.82 300.4 48.11 317.48 48.11 317.48 34.82 333.09 34.82 333.09 44.57 346.62 44.57 346.62 34.82 355.04 34.82 355.04 36.4 364.49 36.4 364.49 34.82 380.06 34.82 380.06 39.58 392.68 39.58 392.68 34.82 398.96 34.82 398.96 44.57 411.85 44.57 411.85 34.82 454.11 34.82 454.11 40.74 467.89 40.74 467.89 34.82 494.45 34.82 494.45 51.47 516.91 51.47 516.91 34.82 529.68 34.82 529.68 43.81 550.62 43.81 550.62 48.4 555.21 48.4 555.21 43.81 589.94 43.81 589.94 34.82 602.7 34.82 602.7 40.23 609.67 40.23 609.67 34.82 614.45 34.82 614.45 49.66 635.11 49.66 635.11 34.82 662.45 34.82 662.45 40.15 651.72 40.15 651.72 61.98 673.55 61.98 673.55 49.84 678.6 49.84 678.6 34.82 716.57 34.82 716.57 40.15 709.94 40.15 709.94 50.7 720.48 50.7 720.48 49.43 737 49.43 737 34.82 764.06 34.82 764.06 38.49 785.51 38.49 785.51 34.82 796.23 34.82 796.23 43.3 808.49 43.3 808.49 34.82 819.72 34.82 819.72 51.21 827.38 51.21 827.38 34.82 842.19 34.82 842.19 48.19 875.38 48.19 875.38 34.82 888.66 34.82 888.66 43.81 892.74 43.81 892.74 46.79 900.02 46.79 900.02 43.81 929 43.81 929 58.28 950.06 58.28 950.06 37.21 948.91 37.21 948.91 34.82 975.98 34.82 975.98 46.79 971.38 46.79 971.38 61.98 980.57 61.98 980.57 48.4 995.38 48.4 995.38 34.82 1011.21 34.82 1011.21 66.2 1024.49 66.2 1024.49 34.82 1035.72 34.82 1035.72 41.62 1047.54 41.62 1047.54 34.82 1053.6 34.82 1053.6 51.06 1079.13 51.06 1079.13 34.82 1100.06 34.82 1100.06 41.77 1111.36 41.77 1111.36 34.82 1123.55 34.82 1123.55 41.04 1130.19 41.04 1130.19 34.82 1140.91 34.82 1140.91 39.51 1163.38 39.51 1163.38 34.82 1170.02 34.82 1170.02 41.13 1180.11 41.13 1180.11 34.82 1222.28 34.82 1222.28 -12.01 -15.7 -12.01"/>
  <rect x="123.21" y="41.77" width="9.45" height="9.45"/>
  <rect x="271.81" y="37.94" width="13.28" height="13.28"/>
  <rect x="257.51" y="48.11" width="3.1" height="3.1"/>
  <rect x="243.21" y="51.21" width="5.87" height="5.87"/>
  <rect x="220.74" y="51.21" width="5.87" height="5.87"/>
  <rect x="146.7" y="54.15" width="2.94" height="2.94"/>
  <rect x="169.68" y="61.41" width="2.95" height="2.95"/>
  <rect x="172.63" y="44.83" width="8.68" height="8.68"/>
  <rect x="366.79" y="44.57" width="4.6" height="4.6"/>
  <polygon points="419.89 49.66 415.81 49.66 415.81 54.15 420.29 54.15 420.29 51.21 431.53 51.21 431.53 39.58 419.89 39.58 419.89 49.66"/>
  <rect x="398.96" y="53.51" width="8.17" height="8.17"/>
  <rect x="438.79" y="36.4" width="5.36" height="5.36"/>
  <rect x="539.38" y="51.21" width="2.3" height="2.3"/>
  <rect x="641" y="41.77" width="7.9" height="7.9"/>
  <rect x="13.3" y="48.11" width="3.45" height="3.45"/>
  <rect x="27.72" y="35.38" width="13.79" height="13.79"/>
  <rect x="16.74" y="61.41" width="4.34" height="4.34"/>
  <rect x="682.87" y="51.06" width="2.04" height="5.3"/>
  <rect x="635.11" y="70.36" width="9.84" height="9.84"/>
  <rect x="627.72" y="61.68" width="6.03" height="6.03"/>
  <rect x="692.06" y="36.75" width="7.06" height="7.06"/>
  <rect x="749.77" y="41.77" width="7.9" height="7.9"/>
  <rect x="742.62" y="43.6" width="6.38" height="6.38"/>
  <rect x="802.36" y="43.6" width="6.13" height="10.12"/>
  <rect x="788.06" y="51.06" width="5.3" height="5.3"/>
  <rect x="867.72" y="56.36" width="5.62" height="5.62"/>
  <rect x="838.11" y="56.36" width="9.84" height="9.84"/>
  <rect x="819.72" y="69.13" width="3.83" height="3.83"/>
  <rect x="753.71" y="60.2" width="31.8" height="6.76"/>
  <rect x="985.68" y="48.65" width="7.71" height="7.71"/>
  <rect x="1029.6" y="48.65" width="12.03" height="7.71"/>
  <rect x="1041.63" y="61.28" width="2.26" height="4.27"/>
  <rect x="1105.17" y="46.79" width="12.38" height="12.38"/>
  <rect x="1149.6" y="48.65" width="7.71" height="7.71"/>
  <rect x="1186.36" y="35.71" width="8.17" height="12.94"/>
  <rect x="1134.28" y="61.98" width="2.04" height="2.55"/>
  <rect x="1157.3" y="64.53" width="1.67" height="1.67"/>
</svg>