<?xml version="1.0" encoding="UTF-8"?>
<svg id="Calque_2" data-name="Calque 2" xmlns="http://www.w3.org/2000/svg" viewBox="0 0 500 500">
  <defs>
    <style>
      .cls-1 {
        fill: #fff;
      }
    </style>
  </defs>
  <rect class="cls-1" x="30.28" y="30.28" width="439.45" height="439.45"/>
  <rect class="cls-1" x="18.68" y="278.29" width="15.72" height="15.72"/>
  <rect class="cls-1" x="13.71" y="263.4" width="2.48" height="2.48"/>
  <rect class="cls-1" x="13.71" y="241.05" width="4.97" height="4.97"/>
  <rect class="cls-1" x="18.68" y="326.29" width="15.72" height="38.07"/>
  <rect class="cls-1" x="14.95" y="380.09" width="3.72" height="3.72"/>
  <rect class="cls-1" x="16.19" y="404.92" width="6.62" height="6.62"/>
  <rect class="cls-1" x="13.71" y="212.92" width="5.79" height="18.21"/>
  <rect class="cls-1" x="19.5" y="178.98" width="7.03" height="7.03"/>
  <rect class="cls-1" x="16.19" y="154.98" width="25.66" height="10.76"/>
  <rect class="cls-1" x="18.68" y="122.71" width="10.34" height="1.66"/>
  <rect class="cls-1" x="30.28" y="138.43" width="4.13" height="4.13"/>
  <rect class="cls-1" x="22.82" y="93.74" width="9.52" height="3.31"/>
  <rect class="cls-1" x="19.5" y="68.92" width="14.9" height="8.28"/>
  <rect class="cls-1" x="18.68" y="36.64" width="4.14" height="4.97"/>
  <rect class="cls-1" x="13.71" y="134.29" width="1.24" height="1.24"/>
  <rect class="cls-1" x="47.64" y="23.4" width="19.03" height="12.41"/>
  <rect class="cls-1" x="84.88" y="11.81" width="7.86" height="7.86"/>
  <rect class="cls-1" x="122.95" y="23.4" width="12.41" height="12.41"/>
  <rect class="cls-1" x="108.06" y="23.4" width="0" height="6.88"/>
  <rect class="cls-1" x="171.78" y="15.74" width="9.93" height="25.86"/>
  <rect class="cls-1" x="215.64" y="15.74" width="3.31" height="10.14"/>
  <rect class="cls-1" x="250" y="23.4" width="20.26" height="14.07"/>
  <rect class="cls-1" x="300.06" y="15.74" width="9.93" height="4.34"/>
  <rect class="cls-1" x="320.75" y="11.81" width="5.79" height="1.66"/>
  <rect class="cls-1" x="344.75" y="17.92" width="2.17" height="2.17"/>
  <rect class="cls-1" x="281.02" y="11.81" width="2.17" height="2.17"/>
  <rect class="cls-1" x="389.44" y="23.4" width="4.97" height="13.24"/>
  <rect class="cls-1" x="422.54" y="11.81" width="24.83" height="24.83"/>
  <rect class="cls-1" x="462.26" y="19" width="7.46" height="20.12"/>
  <rect class="cls-1" x="460.04" y="30.28" width="17.95" height="17.95"/>
  <rect class="cls-1" x="489.57" y="54.85" width="4.97" height="4.97"/>
  <rect class="cls-1" x="477.99" y="64.78" width="4.14" height="4.14"/>
  <rect class="cls-1" x="453.16" y="82.98" width="36.41" height="5.79"/>
  <rect class="cls-1" x="482.13" y="103.67" width="7.45" height="7.45"/>
  <rect class="cls-1" x="462.26" y="189.33" width="23.59" height="23.59"/>
  <rect class="cls-1" x="474.06" y="143.19" width="11.79" height="11.79"/>
  <rect class="cls-1" x="477.99" y="231.12" width="2.07" height="2.07"/>
  <rect class="cls-1" x="479.95" y="316.36" width="12.1" height="12.1"/>
  <rect class="cls-1" x="460.04" y="263.4" width="29.54" height="14.9"/>
  <rect class="cls-1" x="465.99" y="290.71" width="5.37" height="5.37"/>
  <rect class="cls-1" x="468.68" y="360.23" width="11.38" height="4.14"/>
  <rect class="cls-1" x="462.26" y="380.09" width="7.45" height="14.07"/>
  <rect class="cls-1" x="462.26" y="404.92" width="19.86" height="10.76"/>
  <rect class="cls-1" x="474.81" y="380.09" width="7.03" height="7.03"/>
  <rect class="cls-1" x="489.57" y="371.81" width="2.48" height="4.97"/>
  <rect class="cls-1" x="485.85" y="338.71" width="6.62" height="6.62"/>
  <rect class="cls-1" x="482.13" y="433.88" width="9.93" height="6.62"/>
  <rect class="cls-1" x="479.95" y="448.78" width="8.53" height="8.53"/>
  <rect class="cls-1" x="9.57" y="440.5" width="38.07" height="12.54"/>
  <rect class="cls-1" x="20.75" y="457.31" width="26.07" height="20.43"/>
  <rect class="cls-1" x="66.68" y="453.04" width="0" height="24.7"/>
  <rect class="cls-1" x="88.82" y="448.78" width="22.55" height="34.76"/>
  <rect class="cls-1" x="129.16" y="471.54" width="6.21" height="6.21"/>
  <rect class="cls-1" x="160.19" y="477.74" width="5.79" height="5.79"/>
  <rect class="cls-1" x="189.16" y="480.64" width="2.9" height="2.9"/>
  <rect class="cls-1" x="215.64" y="448.78" width="25.66" height="40.55"/>
  <rect class="cls-1" x="254.54" y="482.09" width="1.45" height="1.45"/>
  <rect class="cls-1" x="273.57" y="477.74" width="4.34" height="4.34"/>
  <rect class="cls-1" x="228.47" y="494.29" width="5.71" height="5.71"/>
  <rect class="cls-1" x="292.61" y="480.64" width="7.45" height="2.9"/>
  <rect class="cls-1" x="314.13" y="477.74" width="12.41" height="5.79"/>
  <rect class="cls-1" x="356.33" y="479.92" width="12.41" height="14.38"/>
  <rect class="cls-1" x="326.54" y="453.04" width="14.07" height="21.59"/>
  <rect class="cls-1" x="260.13" y="463.84" width="13.44" height="13.44"/>
  <rect class="cls-1" x="394.4" y="465.39" width="24" height="14.52"/>
  <rect class="cls-1" x="394.4" y="489.33" width="4.97" height="4.97"/>
  <rect class="cls-1" x="434.95" y="479.92" width="9.41" height="9.41"/>
  <rect class="cls-1" x="453.16" y="479.92" width="16.56" height="4.71"/>
  <rect class="cls-1" x="376.19" y="469.72" width="2.93" height="2.93"/>
</svg>