<?xml version="1.0" encoding="UTF-8"?>
<svg id="Calque_1" data-name="Calque 1" xmlns="http://www.w3.org/2000/svg" viewBox="0 0 473.41 379.59">
  <defs>
    <style>
      .cls-1 {
        fill: #fff;
      }
    </style>
  </defs>
  <rect class="cls-1" y="70.54" width="460.5" height="201.68" rx="8.58" ry="8.58"/>
  <rect x="9.74" y="83.98" width="24.16" height="24.16"/>
  <rect x="9.74" y="118.96" width="24.16" height="24.16"/>
  <rect x="40.41" y="118.96" width="24.16" height="24.16"/>
  <rect x="70.24" y="118.96" width="24.16" height="24.16"/>
  <rect x="100.92" y="118.96" width="24.16" height="24.16"/>
  <rect x="132.01" y="118.96" width="24.16" height="24.16"/>
  <rect x="162.68" y="118.96" width="24.16" height="24.16"/>
  <rect x="192.51" y="118.96" width="24.16" height="24.16"/>
  <rect x="223.18" y="118.96" width="24.16" height="24.16"/>
  <rect x="254.28" y="118.96" width="24.16" height="24.16"/>
  <rect x="284.95" y="118.96" width="24.16" height="24.16"/>
  <rect x="314.78" y="118.96" width="24.16" height="24.16"/>
  <rect x="345.45" y="118.96" width="24.16" height="24.16"/>
  <rect x="376.55" y="118.96" width="24.16" height="24.16"/>
  <rect x="407.22" y="118.96" width="24.16" height="24.16"/>
  <rect x="9.74" y="150.05" width="24.16" height="24.16"/>
  <rect x="40.41" y="150.05" width="24.16" height="24.16"/>
  <rect x="70.24" y="150.05" width="24.16" height="24.16"/>
  <rect x="100.92" y="150.05" width="24.16" height="24.16"/>
  <rect x="132.01" y="150.05" width="24.16" height="24.16"/>
  <rect x="162.68" y="150.05" width="24.16" height="24.16"/>
  <rect x="192.51" y="150.05" width="24.16" height="24.16"/>
  <rect x="223.18" y="150.05" width="24.16" height="24.16"/>
  <rect x="254.28" y="150.05" width="24.16" height="24.16"/>
  <rect x="284.95" y="150.05" width="24.16" height="24.16"/>
  <rect x="314.78" y="150.05" width="24.16" height="24.16"/>
  <rect x="345.45" y="150.05" width="24.16" height="24.16"/>
  <rect x="376.55" y="150.05" width="24.16" height="24.16"/>
  <rect x="407.22" y="150.05" width="24.16" height="24.16"/>
  <rect x="9.74" y="181.15" width="24.16" height="24.16"/>
  <rect x="40.41" y="181.15" width="24.16" height="24.16"/>
  <rect x="70.24" y="181.15" width="24.16" height="24.16"/>
  <rect x="100.92" y="181.15" width="24.16" height="24.16"/>
  <rect x="132.01" y="181.15" width="24.16" height="24.16"/>
  <rect x="162.68" y="181.15" width="24.16" height="24.16"/>
  <rect x="192.51" y="181.15" width="24.16" height="24.16"/>
  <rect x="223.18" y="181.15" width="24.16" height="24.16"/>
  <rect x="254.28" y="181.15" width="24.16" height="24.16"/>
  <rect x="284.95" y="181.15" width="24.16" height="24.16"/>
  <rect x="314.78" y="181.15" width="24.16" height="24.16"/>
  <rect x="345.45" y="181.15" width="24.16" height="24.16"/>
  <rect x="376.55" y="181.15" width="24.16" height="24.16"/>
  <rect x="407.22" y="181.15" width="24.16" height="24.16"/>
  <rect x="9.74" y="212.24" width="24.16" height="24.16"/>
  <rect x="40.41" y="212.24" width="24.16" height="24.16"/>
  <rect x="70.24" y="212.24" width="24.16" height="24.16"/>
  <rect x="100.92" y="212.24" width="24.16" height="24.16"/>
  <rect x="132.01" y="212.24" width="24.16" height="24.16"/>
  <rect x="162.68" y="212.24" width="24.16" height="24.16"/>
  <rect x="192.51" y="212.24" width="24.16" height="24.16"/>
  <rect x="223.18" y="212.24" width="24.16" height="24.16"/>
  <rect x="254.28" y="212.24" width="24.16" height="24.16"/>
  <rect x="284.95" y="212.24" width="24.16" height="24.16"/>
  <rect x="314.78" y="212.24" width="24.16" height="24.16"/>
  <rect x="345.45" y="212.24" width="24.16" height="24.16"/>
  <rect x="376.55" y="212.24" width="24.16" height="24.16"/>
  <rect x="407.22" y="212.24" width="24.16" height="24.16"/>
  <rect class="cls-1" x="33.9" y="57.38" width="26.54" height="17.66"/>
  <rect class="cls-1" x="64.57" y="43.03" width="7.59" height="7.59"/>
  <rect class="cls-1" x="47.17" y="43.03" width="5.32" height="0"/>
  <rect class="cls-1" x="21.82" y="13.24" width="14.9" height="14.9"/>
  <rect class="cls-1" x="82.32" y="57.38" width="30.67" height="17.66"/>
  <rect class="cls-1" x="140.44" y="27.59" width="80.55" height="47.45"/>
  <rect class="cls-1" x="186.84" width="5.67" height="5.67"/>
  <rect class="cls-1" x="156.17" y="5.67" width="0" height="7.57"/>
  <rect class="cls-1" x="113" y="5.67" width="17.78" height="17.78"/>
  <rect class="cls-1" x="266.36" y="33.66" width="9.38" height="9.38"/>
  <rect class="cls-1" x="254.28" y="2.84" width="16.77" height="10.41"/>
  <rect class="cls-1" x="262.66" y="60.69" width="54.88" height="28.14"/>
  <rect class="cls-1" x="345.45" y="57.38" width="12.08" height="17.66"/>
  <rect class="cls-1" x="230.25" y="50.63" width="10.06" height="10.06"/>
  <rect class="cls-1" x="376.55" y="60.69" width="49.69" height="23.29"/>
  <rect class="cls-1" x="351.49" y="27.59" width="29.5" height="15.45"/>
  <rect class="cls-1" x="400.71" y="38.34" width="12.84" height="8.49"/>
  <rect class="cls-1" x="401.39" y="9.46" width="17.67" height="3.78"/>
  <rect class="cls-1" x="9.74" y="266.48" width="25.32" height="20.97"/>
  <rect class="cls-1" x="22.4" y="294.62" width="14.32" height="12.69"/>
  <rect class="cls-1" x="64.57" y="290.76" width="17.75" height="25.93"/>
  <rect class="cls-1" x="82.32" y="263.72" width="39.56" height="23.72"/>
  <rect class="cls-1" x="156.17" y="268.69" width="24.55" height="25.38"/>
  <rect class="cls-1" x="134.93" y="303.72" width="9.16" height="9.16"/>
  <rect class="cls-1" x="97.66" y="321.1" width="13.54" height="17.66"/>
  <rect class="cls-1" x="75.89" y="370.21" width="7.17" height="9.38"/>
  <rect class="cls-1" x="49.83" y="342.62" width="6.2" height="1.1"/>
  <rect class="cls-1" x="235.28" y="260.41" width="31.07" height="27.03"/>
  <rect class="cls-1" x="209.41" y="303.72" width="18.21" height="15.72"/>
  <rect class="cls-1" x="299.89" y="263.72" width="39.05" height="27.03"/>
  <rect class="cls-1" x="331.34" y="307.31" width="26.19" height="17.1"/>
  <rect class="cls-1" x="281.13" y="319.45" width="9.38" height="10.48"/>
  <rect class="cls-1" x="303.75" y="346.48" width="8.55" height="8.55"/>
  <rect class="cls-1" x="373.27" y="263.72" width="46.34" height="30.9"/>
  <rect class="cls-1" x="401.39" y="315.86" width="17.67" height="8.83"/>
  <rect class="cls-1" x="435.34" y="266.48" width="38.07" height="22.62"/>
  <rect class="cls-1" x="447.75" y="316.69" width="6.62" height="13.24"/>
</svg>