<?xml version="1.0" encoding="UTF-8"?>
<svg id="Layer_1" xmlns="http://www.w3.org/2000/svg" version="1.1" viewBox="0 0 117.7 111.8">
  <!-- Generator: Adobe Illustrator 29.3.1, SVG Export Plug-In . SVG Version: 2.1.0 Build 151)  -->
  <defs>
    <style>
      .st0 {
        fill: #010101;
        stroke: #fff;
        stroke-miterlimit: 10;
        stroke-width: 5px;
      }
    </style>
  </defs>
  <path class="st0" d="M82.7,96.3l-61.1-23c-1-.4-1-1.7,0-2.1l23.6-8.4c.8-.3,1-1.2.4-1.8l-25.9-27.7c-.5-.5-.4-1.4.3-1.7l23.8-12.8c.5-.3,1.2,0,1.5.4l25.9,44.2c.3.5.2,1.1-.3,1.5l-9.2,6.6c-.6.4-.6,1.2-.1,1.7l22.3,21.3c.9.8,0,2.3-1.2,1.8Z"/>
  <path class="st0" d="M92.1,91.9l-11.7-19.2c-.3-.5-.3-1.1,0-1.5l9-14.4c.3-.5.3-1.2-.1-1.7l-28.9-34.3c-.7-.8-.3-2.1.8-2.3l45.1-10.1c.9-.2,1.8.5,1.8,1.4v41.4c0,.2,0,.4-.1.6l-8.8,21.1c0,0,0,.2,0,.2l-4.2,18.4c-.3,1.3-2,1.5-2.6.4Z"/>
  <path class="st0" d="M48,107.8h-25.5c-.7,0-1.2-.5-1.2-1.2v-6.1c0-.4-.2-.8-.6-1l-15.4-8.2c-.5-.3-.8-.9-.6-1.5l7.9-20.1c.3-.8,1.4-1,2-.3l15.2,18.1c.2.2.3.5.3.8v10.7c0,.5.3,1,.8,1.1l17.4,5.4c1.3.4,1,2.3-.4,2.3Z"/>
</svg>