<?xml version="1.0" encoding="UTF-8"?>
<svg id="Calque_1" xmlns="http://www.w3.org/2000/svg" version="1.1" viewBox="0 0 500 500">
  <!-- Generator: Adobe Illustrator 29.3.1, SVG Export Plug-In . SVG Version: 2.1.0 Build 151)  -->
  <defs>
    <style>
      .st0, .st1 {
        fill: #fff;
      }

      .st1 {
        stroke: #000;
        stroke-miterlimit: 10;
        stroke-width: 15px;
      }
    </style>
  </defs>
  <g>
    <path class="st0" d="M317.1,389c-52.3,0-94.8-28.5-94.8-63.5s42.5-63.5,94.8-63.5,94.8,28.5,94.8,63.5-42.5,63.5-94.8,63.5Z"/>
    <path d="M317.1,269.5c24.3,0,47,6.4,63.8,18.1,15.2,10.5,23.5,24,23.5,37.9s-8.4,27.4-23.5,37.9c-16.8,11.7-39.5,18.1-63.8,18.1s-47-6.4-63.8-18.1c-15.2-10.5-23.5-24-23.5-37.9s8.4-27.4,23.5-37.9c16.8-11.7,39.5-18.1,63.8-18.1M317.1,254.5c-56.5,0-102.3,31.8-102.3,71s45.8,71,102.3,71,102.3-31.8,102.3-71-45.8-71-102.3-71h0Z"/>
  </g>
  <g>
    <path class="st0" d="M419.4,472.1c-26.6,0-48.2-16.8-48.2-37.5s21.6-37.5,48.2-37.5,48.2,16.8,48.2,37.5-21.6,37.5-48.2,37.5Z"/>
    <path d="M419.4,404.7c11.5,0,22.1,3.5,29.9,9.8,6.9,5.6,10.7,12.7,10.7,20.1s-3.8,14.5-10.7,20.1c-7.9,6.3-18.5,9.8-29.9,9.8s-22.1-3.5-29.9-9.8c-6.9-5.6-10.7-12.7-10.7-20.1s3.8-14.5,10.7-20.1c7.9-6.3,18.5-9.8,29.9-9.8M419.4,389.7c-30.7,0-55.7,20.1-55.7,45s24.9,45,55.7,45,55.7-20.1,55.7-45-24.9-45-55.7-45h0Z"/>
  </g>
  <path class="st1" d="M500,81.1c0,84.3-111.9,152.7-250,152.7S0,165.4,0,81.1"/>
</svg>