<?xml version="1.0" encoding="UTF-8"?>
<svg id="Calque_1" data-name="Calque 1" xmlns="http://www.w3.org/2000/svg" viewBox="0 0 1446.55 417.24">
  <defs>
    <style>
      .cls-1 {
        fill: #fff;
      }
    </style>
  </defs>
  <path class="cls-1" d="M28.79,185.33l66.9-103.24c1.9-2.93,6.38-4.84,11.34-4.84h1236.2c5.04,0,9.56,1.96,11.41,4.95l64.04,103.24c3.19,5.14-2.75,10.71-11.41,10.71H40.14c-8.74,0-14.68-5.67-11.34-10.82Z"/>
  <path class="cls-1" d="M1433.77,339.7H12.78c-7.06,0-12.78-3.65-12.78-8.16l21.61-108.06c0-4.5,5.72-8.16,12.78-8.16h1378.84c7.06,0,12.78,3.65,12.78,8.16l20.53,108.06c0,4.5-5.72,8.16-12.78,8.16Z"/>
  <rect class="cls-1" x="51.72" y="334.48" width="19.4" height="19.4"/>
  <rect class="cls-1" x="106.9" y="324.14" width="44.83" height="55.17" rx="2.16" ry="2.16"/>
  <rect class="cls-1" x="81.03" y="383.62" width="18.97" height="26.72"/>
  <rect class="cls-1" x="129.31" y="393.1" width="7.76" height="17.24"/>
  <rect class="cls-1" x="193.97" y="348.28" width="22.41" height="35.34"/>
  <rect class="cls-1" x="212.93" y="324.14" width="43.1" height="37.93"/>
  <rect class="cls-1" x="395.69" y="324.14" width="12.93" height="39.66"/>
  <rect class="cls-1" x="419.83" y="379.31" width="12.07" height="17.24"/>
  <rect class="cls-1" x="445.69" y="362.07" width="15.52" height="8.62"/>
  <rect class="cls-1" x="499.14" y="348.28" width="25.86" height="28.45"/>
  <rect class="cls-1" x="850.86" y="330.17" width="58.62" height="47.41"/>
  <rect class="cls-1" x="958.62" y="348.28" width="15.52" height="15.52"/>
  <rect class="cls-1" x="934.48" y="387.93" width="19.83" height="21.55"/>
  <rect class="cls-1" x="850.86" y="393.1" width="10.34" height="20.69"/>
  <rect class="cls-1" x="762.07" y="362.07" width="13.79" height="14.66"/>
  <rect class="cls-1" x="595.69" y="324.14" width="39.66" height="31.9"/>
  <rect class="cls-1" x="1093.1" y="369.4" width="22.41" height="31.47"/>
  <rect class="cls-1" x="1080.17" y="60.34" width="41.81" height="41.81"/>
  <rect class="cls-1" x="1127.59" y="21.55" width="11.64" height="11.64"/>
  <rect class="cls-1" x="1101.08" y="33.19" width="3.23" height="3.23"/>
  <rect class="cls-1" x="1008.62" y="12.93" width="14.44" height="14.44"/>
  <rect class="cls-1" x="974.14" y="57.76" width="25" height="39.66"/>
  <rect class="cls-1" x="731.03" y="65.52" width="57.76" height="27.59"/>
  <rect class="cls-1" x="810.34" y="34.81" width="12.93" height="1.62"/>
  <rect class="cls-1" x="823.28" y="12.93" width="18.1" height="1.72"/>
  <rect class="cls-1" x="542.24" y="44.83" width="53.45" height="48.28"/>
  <rect class="cls-1" x="453.45" y="33.19" width="14.44" height="14.44"/>
  <rect class="cls-1" x="504.31" y="14.66" width="13.79" height="0"/>
  <rect class="cls-1" x="568.97" width="10.34" height="4.31"/>
  <rect class="cls-1" x="270.69" y="65.52" width="67.24" height="43.97"/>
  <rect class="cls-1" x="337.93" y="27.37" width="10.34" height="1.08"/>
  <rect class="cls-1" x="304.31" y="4.31" width="3.45" height="10.34"/>
  <rect class="cls-1" x="225.86" y="14.66" width="30.17" height="30.17"/>
  <rect class="cls-1" x="151.72" y="33.19" width="20.69" height="11.64"/>
  <rect class="cls-1" x="162.07" y="60.34" width="37.93" height="27.16"/>
  <rect class="cls-1" x="1183.62" y="334.48" width="34.48" height="31.9"/>
  <rect class="cls-1" x="1286.21" y="362.07" width="2.59" height="17.24"/>
  <rect class="cls-1" x="1248.28" y="387.93" width="10.78" height="10.78"/>
  <rect class="cls-1" x="1353.45" y="403.45" width="37.07" height="13.79"/>
  <rect class="cls-1" x="1371.98" y="330.17" width="62.5" height="40.52"/>
  <rect class="cls-1" x="1390.52" y="153.45" width="29.04" height=".86"/>
  <rect class="cls-1" x="1371.98" y="104.31" width="18.53" height="24.14"/>
  <rect class="cls-1" x="1297.41" y="68.97" width="22.41" height="17.24"/>
  <rect class="cls-1" x="1272.41" y="65.52" width="6.03" height="12.07"/>
  <rect class="cls-1" x="1248.28" y="40.41" width="10.78" height="7.22"/>
  <rect class="cls-1" x="1303.45" y="21.55" width="16.38" height="8.19"/>
</svg>