<?xml version="1.0" encoding="UTF-8"?>
<svg id="ALERÉIA" xmlns="http://www.w3.org/2000/svg" viewBox="0 0 282.53 55.11">
  <defs>
    <style>
      .cls-1 {
        fill: #fff;
      }
    </style>
  </defs>
  <path class="cls-1" d="M44.24,10.93v44.11h-11.19v-7.31H11.13v7.24H0V10.93h44.24ZM33.05,21.93H11.13v14.68h21.93v-14.68Z"/>
  <path class="cls-1" d="M52.26,10.93h11.06v33.05h18.43v11.06h-29.5V10.93Z"/>
  <path class="cls-1" d="M120.37,11v11h-22.12v3.69h18.43v11h-18.43v7.37h22.12v11.06h-33.12v-.06h-.06V11h33.18Z"/>
  <path class="cls-1" d="M171.15,11v36.74h-9.06l5.5,7.37h-11.64l-6.08-7.37h-11.77v7.31h-11V11h44.05ZM160.15,21.99h-22.06v14.68h22.06v-14.68Z"/>
  <path class="cls-1" d="M212.35,11v11h-22.12v3.69h18.5v11h-18.5v7.37h22.12v11.06h-33.12v-.06h-.06V11h33.18ZM188.42,3.69l14.68-3.69v7.37h-14.68v-3.69Z"/>
  <path class="cls-1" d="M219.08,55.04V11h11.06l.13,44.05h-11.19Z"/>
  <path class="cls-1" d="M282.53,10.93v44.11h-11.19v-7.31h-21.93v7.24h-11.12V10.93h44.24ZM271.34,21.93h-21.93v14.68h21.93v-14.68Z"/>
</svg>