<?xml version="1.0" encoding="UTF-8"?>
<svg id="back" xmlns="http://www.w3.org/2000/svg" viewBox="0 0 651.55 593.34">
  <defs>
    <style>
      .cls-1 {
        fill: #fff;
      }
    </style>
  </defs>
  <polygon class="cls-1" points="328.43 296.67 521.26 499.26 521.26 94.08 328.43 296.67"/>
  <polygon class="cls-1" points="81.79 296.67 274.62 499.26 274.62 94.08 81.79 296.67"/>
  <rect class="cls-1" x="136.84" y="198.78" width="30.64" height="50.55"/>
  <rect class="cls-1" x="136.84" y="151.29" width="15.32" height="15.32"/>
  <rect class="cls-1" x="107.73" y="174.27" width="16.85" height="4.6"/>
  <rect class="cls-1" x="77.1" y="198.78" width="25.28" height="25.28"/>
  <rect class="cls-1" x="102.37" y="376.48" width="29.87" height="32.17"/>
  <rect class="cls-1" x="181.93" y="401.89" width="26.91" height="38.93"/>
  <rect class="cls-1" x="136.84" y="440.82" width="7.66" height="7.66"/>
  <rect class="cls-1" x="173.61" y="486.78" width="7.66" height="7.66"/>
  <rect class="cls-1" x="360.5" y="198.78" width="42.89" height="62.81"/>
  <rect class="cls-1" x="506.03" y="174.27" width="33.7" height="18.38"/>
  <rect class="cls-1" x="539.73" y="142.1" width="9.19" height="9.19"/>
  <rect class="cls-1" x="409.52" y="94.08" width="24.01" height="24.01"/>
  <rect class="cls-1" x="375.82" y="94.08" width="27.57" height="12"/>
  <rect class="cls-1" x="381.95" y="385.67" width="6.89" height="6.89"/>
  <rect class="cls-1" x="444.76" y="401.89" width="18.38" height="46.59"/>
  <rect class="cls-1" x="403.39" y="425.18" width="12.26" height="0"/>
  <rect class="cls-1" x="375.82" y="468.39" width="27.57" height="27.57"/>
</svg>