<?xml version="1.0" encoding="UTF-8"?>
<svg id="Layer_3" data-name="Layer 3" xmlns="http://www.w3.org/2000/svg" viewBox="0 0 651.55 593.34">
  <defs>
    <style>
      .cls-1, .cls-2 {
        fill: #fff;
      }

      .cls-2 {
        stroke-width: 10px;
      }

      .cls-2, .cls-3 {
        stroke: #fff;
        stroke-miterlimit: 10;
      }

      .cls-3 {
        fill: none;
        stroke-width: 9px;
      }
    </style>
  </defs>
  <polygon class="cls-2" points="246.38 239.35 139.03 239.35 139.03 346.41 245.5 346.41 353.73 454.65 353.73 115.82 246.38 239.35"/>
  <rect class="cls-1" x="235.39" y="222.22" width="25.53" height="25.53"/>
  <rect class="cls-1" x="246.38" y="185.46" width="8.42" height="12.26"/>
  <rect class="cls-1" x="228.24" y="191.59" width="6.13" height="6.13"/>
  <rect class="cls-1" x="231.31" y="166.05" width="3.06" height="3.06"/>
  <rect class="cls-1" x="191.48" y="214.05" width="28.6" height="28.6"/>
  <rect class="cls-1" x="191.48" y="191.59" width="14.3" height="3.06"/>
  <rect class="cls-1" x="191.48" y="158.91" width="8.17" height="8.17"/>
  <rect class="cls-1" x="130.2" y="231.11" width="44.94" height="32.99"/>
  <rect class="cls-1" x="130.2" y="147.87" width="8.82" height="18.18"/>
  <rect class="cls-1" x="156.76" y="349.88" width="28.54" height="28.54"/>
  <rect class="cls-1" x="185.3" y="418.31" width="10.27" height="10.27"/>
  <rect class="cls-1" x="169.01" y="412.18" width="1.02" height="2.04"/>
  <rect class="cls-1" x="190.43" y="392.78" width="3.09" height="1.02"/>
  <rect class="cls-1" x="220.07" y="339.36" width="23.13" height="23.13"/>
  <rect class="cls-1" x="235.39" y="392.78" width="2.04" height="1.02"/>
  <rect class="cls-1" x="288.14" y="389.05" width="20.79" height="42.53"/>
  <rect class="cls-1" x="270.12" y="448.95" width="6.13" height="5.11"/>
  <rect class="cls-1" x="260.93" y="423.44" width="3.06" height="8.14"/>
  <rect class="cls-1" x="243.21" y="448.95" width="4.95" height="4.95"/>
  <rect class="cls-1" x="304.84" y="454.65" width="9.92" height="9.92"/>
  <rect class="cls-1" x="304.84" y="139.5" width="20.94" height="39.83"/>
  <rect class="cls-1" x="296.49" y="130.21" width="37.64" height="73.72"/>
  <rect class="cls-1" x="288.14" y="82.31" width="5.29" height="5.29"/>
  <rect class="cls-1" x="91.97" y="247.76" width="4.79" height="4.79"/>
  <line class="cls-3" x1="414.12" y1="222.22" x2="529.27" y2="337.37"/>
  <line class="cls-3" x1="412.59" y1="339.36" x2="536.52" y2="215.43"/>
</svg>