<?xml version="1.0" encoding="UTF-8"?>
<svg id="Layer_1" data-name="Layer 1" xmlns="http://www.w3.org/2000/svg" viewBox="0 0 695.04 149.47">
  <defs>
    <style>
      .cls-1 {
        fill: #fff;
      }
    </style>
  </defs>
  <path class="cls-1" d="M0,31.99h110.42v117.3h-19.78v-21.33H19.61v21.16H0V31.99ZM90.64,106.81v-54.01H19.61v54.01h71.04Z"/>
  <path class="cls-1" d="M131.75,149.3V31.99h19.44v96.32h50.57v20.98h-70Z"/>
  <path class="cls-1" d="M216.37,149.47v-10.92c0-4.76-.03-10.12-.09-16.08-.06-5.96-.09-12.32-.09-19.09V32.16h80.15v20.81h-60.72v22.02h50.57v20.81h-50.57v32.85h60.72v20.81h-79.98Z"/>
  <path class="cls-1" d="M314.24,32.16h109.91v95.8h-30.1l15.14,21.5h-24.77l-14.45-21.5h-36.46v21.33h-19.26V32.16ZM404.88,107.16v-54.18h-71.38v54.18h71.38Z"/>
  <path class="cls-1" d="M445.65,149.47v-10.92c0-4.76-.03-10.12-.09-16.08-.06-5.96-.09-12.32-.09-19.09V32.16h80.15v20.81h-60.72v22.02h50.74v20.81h-50.74v32.85h60.72v20.81h-79.98ZM467.49,13.93v-4.13L502.23,0v13.93h-34.74Z"/>
  <path class="cls-1" d="M563.29,149.3h-19.78V32.16h19.44l.34,117.13Z"/>
  <path class="cls-1" d="M584.62,31.99h110.42v117.3h-19.78v-21.33h-71.04v21.16h-19.61V31.99ZM675.26,106.81v-54.01h-71.04v54.01h71.04Z"/>
</svg>